ply
format ascii 1.0
comment Created in Blender version 4.1.1
element vertex 284
property float x
property float y
property float z
property float nx
property float ny
property float nz
property uchar red
property uchar green
property uchar blue
property uchar alpha
element face 564
property list uchar uint vertex_indices
end_header
-0.09601879 2.523027 -0.053238213 -0.6006463 0.76838523 -0.22092591 107 130 226 255
0.18814419 2.5495887 -0.23953426 -2.2929459e-07 0.93964595 -0.3421484 107 130 226 255
0.18814397 3.7659373 1.1096293 -6.4312786e-07 0.80769056 -0.5896065 107 130 226 255
-0.02506566 3.7215438 1.375968 -0.8560824 0.4696564 -0.21574461 107 130 226 255
0.18814397 4.325168 2.2637591 -2.5841669e-06 0.95292336 -0.30321145 107 130 226 255
0.06371379 4.2189174 2.379452 -0.8965759 0.43870953 -0.060709246 107 130 226 255
0.1881442 4.4052157 3.3647594 -2.104049e-06 0.992404 0.12302162 107 130 226 255
0.11606121 4.2542186 3.4269745 -0.96669483 0.23563789 0.09987974 107 130 226 255
0.18814397 4.2363973 3.9949505 -2.0113619e-06 0.6088827 0.7932602 107 130 226 255
-0.039643764 2.1857352 3.3825865 -0.7341754 0.5189348 0.43782797 107 130 226 255
0.18814445 2.815926 3.3647594 0 0.43072426 0.90248364 107 130 226 255
0.1881442 1.9459615 3.7377028 -2.1145493e-07 0.78369415 0.62114686 107 130 226 255
-0.2200998 2.4608092 1.9974217 -0.8908691 0.44192472 0.10514218 107 130 226 255
-0.043707132 3.206696 2.5213566 -0.9817722 0.096861795 0.16352732 107 130 226 255
0.047884464 3.6149411 2.8943 -0.9910898 0.027447242 0.13033666 107 130 226 255
0.1881442 -0.12049723 -6.060613 -3.069829e-07 0.76038486 -0.6494727 107 130 226 255
-0.07819271 -0.3792019 -6.269055 -0.4934899 0.48342264 -0.72302854 107 130 226 255
0.1881442 -0.49720812 -6.457025 -4.328874e-07 0.4267848 -0.90435314 107 130 226 255
0.18814373 0.37737465 -5.404422 -3.9940156e-07 0.8275058 -0.5614572 107 130 226 255
-0.30014133 0.1672163 -5.5555096 -0.44460028 0.6681089 -0.59662485 107 130 226 255
0.0018482208 0.8214588 -4.6369476 -0.24343659 0.82918304 -0.503184 107 130 226 255
0.18814397 1.6996174 -3.201048 1.2950007e-07 0.9067651 -0.42163602 107 130 226 255
-0.45113635 1.4904389 -3.254203 -0.49914736 0.7756198 -0.38634935 107 130 226 255
-0.30014133 0.7474766 -4.607672 -0.32250163 0.81169164 -0.48697984 107 130 226 255
0.18814397 2.2929664 -1.6551853 -6.9182995e-08 0.9618172 -0.27369246 107 130 226 255
-0.59304285 2.10916 -1.6971135 -0.59627295 0.7776149 -0.19943321 107 130 226 255
-0.6730838 1.9994397 -0.15984285 -0.7719377 0.63561755 -0.010113236 107 130 226 255
-0.74403703 1.9459615 1.8733387 -0.8307562 0.546276 0.106895655 107 130 226 255
-0.52208877 1.5286303 3.8352194 -0.71240485 0.64911723 0.2666949 107 130 226 255
-0.22009945 1.1125474 5.753085 -0.5425593 0.79420125 0.27363053 107 130 226 255
0.1881442 1.2607875 5.7430096 -5.9869296e-07 0.9578527 0.2872599 107 130 226 255
0.18814468 0.81097555 7.1770444 -4.9215834e-07 0.93202674 0.36238945 107 130 226 255
-0.32670403 0.4009614 7.15402 -0.7539386 0.584191 0.30049503 107 130 226 255
0.18814468 0.5099931 8.037639 -6.952027e-08 0.90727323 0.42054164 107 130 226 255
-0.22918701 -0.04158926 8.06952 -0.8836578 0.3632759 0.29526162 107 130 226 255
0.18814468 0.18674326 8.858465 1.6864783e-08 0.8924092 0.45122692 107 130 226 255
-0.08693123 -0.32525778 8.922657 -0.8818975 0.4624676 0.091544956 107 130 226 255
0.18814468 -0.12417412 9.509111 -4.0307364e-07 0.9032733 0.42906573 107 130 226 255
-0.14914608 -0.43958187 9.580761 -0.59871304 0.7018124 0.38600773 107 130 226 255
0.18814468 -0.59182215 9.944307 -4.2014017e-07 0.7246726 0.68909335 107 130 226 255
-0.13956451 -0.67033625 9.823445 -0.4086027 0.7480193 0.52298284 107 130 226 255
-0.59304285 0.5336437 -4.714532 -0.5378748 0.7272663 -0.42635012 107 130 226 255
-0.9572468 0.4423437 -4.151829 -0.80401605 0.5404196 -0.24800195 107 130 226 255
-0.9200301 0.9854541 -3.07345 -0.8164356 0.5264266 -0.23729302 107 130 226 255
-0.9303342 1.4531827 -1.7337343 -0.86718005 0.48616284 -0.107909866 107 130 226 255
-1.0635014 1.3779845 -0.15984285 -0.87499106 0.484096 -0.0064575183 107 130 226 255
-1.001636 1.3335938 1.6070017 -0.9118561 0.40042418 0.090437554 107 130 226 255
-0.8062525 1.0581694 3.7198763 -0.85166514 0.4984417 0.16193321 107 130 226 255
-0.4511361 0.8470521 5.7411504 -0.77809703 0.58211553 0.23602232 107 130 226 255
-1.0904155 0.02507019 -4.5961547 -0.93338656 0.18960084 -0.30469823 107 130 226 255
-0.92159605 0.107421875 -4.945646 -0.8129565 0.34132597 -0.4718031 107 130 226 255
-0.77059984 -0.11818123 -5.2316556 -0.8058735 0.28412697 -0.519461 107 130 226 255
-0.5399151 -0.6639657 -5.847289 -0.6707519 0.37754527 -0.6383975 107 130 226 255
-0.16697264 -1.1181235 -6.383762 -0.5630225 0.36460748 -0.741665 107 130 226 255
-1.0635018 -0.32671785 -4.5454144 -0.958278 0.036969252 -0.28343707 107 130 226 255
-0.89503145 -0.1446352 -4.913283 -0.9114935 0.011325406 -0.41115838 107 130 226 255
-0.30014133 -1.3783951 -6.467816 -0.7591537 0.24934557 -0.601259 107 130 226 255
-0.33579302 -1.7343848 -6.2567997 -0.9421764 -0.058869716 -0.32990614 107 130 226 255
-0.06945515 -2.4625165 -7.252701 -0.96876466 -0.16904603 -0.18143472 107 130 226 255
-0.06945515 -2.3680453 -7.4230204 -0.85685277 0.14754891 -0.49399665 107 130 226 255
0.04623747 -2.4867754 -7.6022825 -0.55688286 0.027949689 -0.83012074 107 130 226 255
0.1881442 -2.430159 -7.642124 4.9561518e-08 0.26336068 -0.9646974 107 130 226 255
0.1881442 -1.4013023 -6.7282047 -5.136199e-07 0.5385875 -0.84256965 107 130 226 255
0.010586262 -1.3296394 -6.624043 -0.4340341 0.44458666 -0.78355414 107 130 226 255
-0.87720585 -0.59350395 -5.2981553 -0.9558591 0.13504052 -0.26095474 0 0 0 255
-0.8859434 -0.34070492 -5.0186625 -0.9100326 0.20154339 -0.36224428 104 127 221 255
-0.88594294 -0.69398737 -5.270728 -0.9364804 0.111610934 -0.33248672 0 0 0 255
-0.73529863 -0.8142133 -5.7527966 -0.86189306 0.114033945 -0.49410197 107 130 226 255
-0.7174735 -1.0094209 -5.653282 -0.9182964 -0.16082045 -0.36175746 107 130 226 255
-0.38018227 -1.8781216 -6.135115 -0.89031315 0.08668295 -0.447022 107 130 226 255
-0.10475731 -2.5160773 -7.0344296 -0.9484198 0.04470559 -0.31384918 167 171 230 255
-0.7572193 -1.4092436 -5.4550233 -0.8899102 -0.10180489 -0.4446298 107 130 226 255
-1.0191131 -0.9041276 -5.101253 -0.95168436 -0.00066982914 -0.3070774 104 126 221 255
-1.0282001 -1.2444239 -4.327763 -0.91290283 -0.37233716 -0.16725294 107 130 226 255
-0.77059984 -1.610959 -5.3827004 -0.9261672 -0.29590657 -0.23378114 107 130 226 255
-1.0282001 -0.7328253 -4.908849 -0.9425577 0.1906803 -0.27427354 107 130 226 255
-1.0191135 -0.420362 -4.811343 -0.9262973 0.1885511 -0.32622355 107 130 226 255
-1.1613693 -0.8317051 -4.364667 -0.9577673 -0.1032534 -0.2683666 107 130 226 255
-0.4511361 -2.0594702 -6.096876 -0.93157417 -0.034141354 -0.36194485 107 130 226 255
-0.19353676 -2.624636 -6.9098287 -0.95240676 -0.24605523 -0.17993917 204 203 238 255
-0.40674543 -2.374771 -5.303422 -0.60187733 -0.79171026 -0.10458746 253 249 254 255
-0.59304285 -2.1506186 -4.0376024 -0.55572736 -0.83129954 0.01039957 253 249 254 255
-0.16697264 -2.3508542 -5.916257 -0.5055668 -0.8545869 0.11867341 253 249 254 255
-0.41548395 -2.1849473 -6.0894074 -0.8396554 -0.53936446 0.06375575 140 149 227 255
-1.3211014 -1.4896379 -2.9848554 -0.9082948 -0.23677635 -0.34487316 115 133 226 255
-1.0369372 -1.8399489 -2.9518833 -0.43053302 -0.90107536 -0.05200469 253 249 254 255
-1.2235856 -0.8086791 -4.2112393 -0.95932746 -0.11381412 -0.25833523 107 130 226 255
-1.5343108 -0.44545317 -2.7914681 -0.9884635 0.024373543 -0.14948499 107 130 226 255
-1.2144957 -0.20406294 -3.982829 -0.97707057 0.13421531 -0.1652857 107 130 226 255
-1.0904157 0.24406481 -3.9098175 -0.9164842 0.36082083 -0.17281525 107 130 226 255
-1.3032749 0.3868394 -2.838052 -0.9115902 0.3583803 -0.20141222 107 130 226 255
-1.4277077 0.6318002 -1.7128996 -0.92844504 0.35907456 -0.09515965 107 130 226 255
-1.5961764 -0.27879286 -1.369795 -0.9987307 -0.04737004 -0.017117303 107 130 226 255
-1.4899225 0.49610043 -0.00011086464 -0.9579809 0.28605145 0.021149993 107 130 226 255
-1.5961761 -0.3888607 0.17744815 -0.992037 -0.12282379 0.027872248 107 130 226 255
-1.4277076 0.4458027 1.6779566 -0.952783 0.2953837 0.07037764 107 130 226 255
-1.5252236 -0.38012218 1.7489088 -0.9942725 -0.099479266 0.039063845 107 130 226 255
-1.3476651 0.23259258 3.6310945 -0.9466557 0.2901809 0.14013575 107 130 226 255
-1.3742294 -0.70832586 3.6132727 -0.9576574 -0.2440131 0.15280683 107 130 226 255
-0.96598434 0.10409403 5.6872263 -0.9486864 0.20898111 0.2373204 107 130 226 255
-0.806252 -0.75248957 5.6419353 -0.92734826 -0.32142526 0.19160089 107 130 226 255
-0.6286936 -0.13322449 7.0315022 -0.948809 0.1541134 0.27569994 107 130 226 255
-0.5752158 -0.9910493 6.957983 -0.8998083 -0.38769174 0.20010012 107 130 226 255
-0.30014038 -0.47113848 7.9852853 -0.9651054 0.032691795 0.25981295 107 130 226 255
-0.3088789 -1.0019474 7.9256454 -0.9313706 -0.31110793 0.18910448 107 130 226 255
-0.15823364 -0.63190985 8.68432 -0.99038464 0.13700718 -0.019164965 107 130 226 255
-0.18479729 -1.0637774 8.561131 -0.9639205 -0.2601527 -0.05637275 107 130 226 255
-0.45113564 -0.70467854 9.525117 -0.7622455 0.6465515 0.030871803 107 130 226 255
-1.2501463 -1.4073977 -1.6150895 -0.7446639 -0.65171397 0.14402987 150 157 228 255
-1.1257175 -1.5786414 0.23092532 -0.68376184 -0.72968936 0.004818654 253 249 254 255
-1.143543 -1.5398893 1.6511761 -0.7075388 -0.7061662 0.026797485 253 249 254 255
-0.8950312 -1.6123934 3.4356341 -0.5998321 -0.7923835 0.11104004 253 249 254 255
-0.415483 -1.4871163 5.5886526 -0.60482514 -0.7853111 0.13218519 250 246 253 255
-0.14914608 -1.4367905 6.9509635 -0.5810941 -0.8022837 0.13664025 107 130 226 255
-0.060367107 -1.3663349 7.871892 -0.6765788 -0.73107207 0.088173494 107 130 226 255
-0.0072393417 -1.4050527 8.93052 -0.46781486 -0.8795227 -0.08711547 107 130 226 255
-0.3155117 -1.3552608 9.421542 -0.33898738 -0.9242289 -0.1757513 107 130 226 255
-2.3864512 -1.9514058 -2.0757222 -0.80192703 0.28742787 -0.52373487 107 130 226 255
-2.3064086 -2.014115 -2.1102726 -0.16640316 -0.85848147 -0.48509735 107 130 226 255
-2.0669856 -1.7365348 -1.2735689 0.51448 0.49518397 0.7000737 107 130 226 255
-2.510881 -2.1321347 -0.49493742 -0.03836865 -0.082247354 0.99587315 107 130 226 255
-2.6349645 -2.169124 -0.9983301 -0.99041545 -0.09702928 0.09829834 107 130 226 255
-2.6083975 -2.0718853 -1.6987722 -0.95824033 0.09566725 -0.26948705 107 130 226 255
0.1881442 -2.0400138 0.10649463 -6.6177066e-08 -0.999924 -0.012329235 251 247 254 255
0.18814409 -1.9633615 -1.5721998 -1.935465e-07 -0.9971743 0.075122 253 249 254 255
0.18814445 -1.8804963 3.3396673 -1.3041296e-07 -0.99831825 0.057969753 253 249 254 255
0.18814468 -1.6525187 5.60157 -6.847629e-08 -0.9969418 0.07814811 253 249 254 255
0.1881442 -1.5128098 7.815479 -1.3616453e-06 -0.9960944 0.0882947 107 130 226 255
0.18814468 -1.4619012 8.976314 -5.121376e-07 -0.9985239 0.054313682 107 130 226 255
0.18814397 -2.2523177 -3.8857722 -5.5121035e-08 -0.9900944 0.14040348 253 249 254 255
0.18814397 -2.1050336 -2.6529934 -1.511196e-07 -0.99005497 0.14068098 253 249 254 255
0.1881442 -2.4950774 -5.037392 -1.9560073e-07 -0.9955881 0.0938316 253 249 254 255
0.1881442 -2.4296675 -5.824606 2.0215668e-07 -0.9934488 0.114278 253 249 254 255
0.1881442 -2.7909114 -6.7279377 -5.389762e-07 -0.9354003 0.3535904 253 249 254 255
-0.08693123 -2.7378743 -6.8301554 -0.5528106 -0.7990888 0.2363422 252 248 254 255
0.1881442 -3.0197172 -7.4059677 -3.318862e-07 -0.9500484 -0.3121025 204 203 238 255
0.028411865 -2.946898 -7.319948 -0.6083564 -0.79190457 -0.052817117 240 237 249 255
-2.8390827 -1.5002875 11.716568 -0.59686685 -0.01207417 0.80224955 107 130 226 255
-2.3686237 -1.5094419 10.451622 -0.72197455 0.5259004 -0.44964597 107 130 226 255
-2.0225964 -1.4057603 11.3896885 0.19754057 0.088601515 0.9762825 107 130 226 255
-0.14914608 -1.0258269 10.592784 -0.22649252 0.9491996 0.2184517 107 130 226 255
-0.5425339 -0.9079342 9.905031 -0.43868166 0.86669636 0.23747806 107 130 226 255
0.18814468 -0.9134059 10.306231 -1.009799e-07 0.91263616 0.40877268 107 130 226 255
-0.015976906 -1.0452108 10.985093 0.43821502 0.1449798 0.8871012 107 130 226 255
0.18814468 -1.0359955 10.666977 2.9869311e-06 -0.22411156 0.9745635 107 130 226 255
-0.6552572 -0.9992466 9.550374 -0.72200364 0.44133866 -0.53285164 107 130 226 255
0.054975986 -2.6797833 -7.5292444 -0.602211 -0.15721628 -0.7827036 110 131 226 255
0.1881442 -2.6696012 -7.546275 -1.3905665e-07 -0.20131272 -0.979527 108 130 226 255
0.019324303 -2.8618877 -7.4819345 -0.68125916 -0.43570212 -0.58825976 157 162 229 255
0.1881442 -2.8835557 -7.5461683 3.565877e-07 -0.48547596 -0.87424994 131 143 227 255
-2.5818362 -2.1988103 -0.9932965 0.069767095 -0.9971855 0.027450128 107 130 226 255
-2.5461822 -2.137231 -1.6894608 -0.11195713 -0.96975 -0.21691155 107 130 226 255
0.1881442 3.5439858 3.6933093 1.1327157e-07 -0.41333973 0.91057694 107 130 226 255
0.18814433 -1.9810333 1.6157414 -1.3528955e-07 -0.9990199 0.04426391 253 249 254 255
0.18814468 -1.5955977 6.926763 -3.5380455e-07 -0.9951491 0.09837846 107 130 226 255
0.18814468 -1.4069862 9.50003 -1.4385358e-07 -0.98204035 0.18867113 107 130 226 255
-2.3686237 -1.5993962 10.458439 -0.49484164 -0.77305585 -0.3968834 107 130 226 255
-1.6405659 -1.4362454 9.862229 -0.28178978 -0.70698833 -0.64866173 107 130 226 255
-1.6405659 -1.2827353 9.856952 -0.48249903 0.62018895 -0.6185147 107 130 226 255
-0.5664778 -1.2226248 11.1653385 0.0057570674 -0.061631218 0.9980824 107 130 226 255
0.1881442 0.9142399 -4.575929 -4.9241404e-08 0.8584961 -0.51282007 107 130 226 255
0.40135407 3.7215438 1.375968 0.8560822 0.4696567 -0.21574491 107 130 226 255
0.47230756 2.523027 -0.053238213 0.60064626 0.7683852 -0.22092596 107 130 226 255
0.3125751 4.2189174 2.379452 0.8965748 0.43871158 -0.060710024 107 130 226 255
0.26022816 4.2542186 3.4269745 0.9666943 0.23563969 0.0998804 107 130 226 255
0.41593266 2.1857352 3.3825865 0.73417515 0.5189347 0.43782836 107 130 226 255
0.41999578 3.206696 2.5213566 0.9817721 0.09686238 0.16352731 107 130 226 255
0.5963892 2.4608092 1.9974219 0.890869 0.44192463 0.10514214 107 130 226 255
0.32840395 3.6149411 2.8943 0.9910898 0.0274469 0.13033651 107 130 226 255
0.45448208 -0.3792019 -6.269055 0.4934903 0.48342243 -0.7230283 107 130 226 255
0.6764288 0.16721678 -5.5555096 0.4445995 0.66810936 -0.5966248 107 130 226 255
0.3744402 0.8214588 -4.6369476 0.24343683 0.829183 -0.5031839 107 130 226 255
0.67642903 0.7474766 -4.607672 0.3225018 0.8116917 -0.4869796 107 130 226 255
0.8274238 1.4904389 -3.2542028 0.499147 0.77562 -0.38634953 107 130 226 255
0.96933115 2.10916 -1.6971135 0.5962726 0.77761513 -0.19943339 107 130 226 255
1.0493721 1.9994397 -0.15984285 0.7719376 0.63561785 -0.01011324 107 130 226 255
1.1203254 1.9459615 1.8733388 0.83075583 0.54627657 0.106895514 107 130 226 255
0.89837813 1.5286303 3.8352191 0.7124052 0.6491168 0.26669508 107 130 226 255
0.5963893 1.1125474 5.753085 0.5425601 0.79420084 0.27363023 107 130 226 255
0.70299435 0.4009614 7.15402 0.75393903 0.58419055 0.3004953 107 130 226 255
0.6054764 -0.04158926 8.06952 0.8836582 0.3632751 0.29526174 107 130 226 255
0.4632206 -0.32525778 8.922657 0.8818974 0.46246782 0.09154492 107 130 226 255
0.5254364 -0.43958187 9.580761 0.59871405 0.7018121 0.38600695 107 130 226 255
0.51585484 -0.67033625 9.823445 0.40860265 0.7480197 0.5229822 107 130 226 255
0.969331 0.5336437 -4.714532 0.53787506 0.72726625 -0.42634997 107 130 226 255
1.3335345 0.4423437 -4.151829 0.8040149 0.540421 -0.24800241 107 130 226 255
1.2963184 0.9854541 -3.07345 0.81643486 0.5264275 -0.23729365 107 130 226 255
1.3066233 1.4531827 -1.7337341 0.86718005 0.48616266 -0.1079099 107 130 226 255
1.4397907 1.3779845 -0.15984297 0.8749913 0.4840956 -0.006457698 107 130 226 255
1.3779261 1.3335938 1.6070014 0.9118561 0.40042394 0.09043753 107 130 226 255
1.1825407 1.0581694 3.719876 0.8516652 0.49844158 0.16193308 107 130 226 255
0.8274245 0.8470521 5.7411504 0.7780977 0.582115 0.2360217 107 130 226 255
1.2978833 0.107421875 -4.945646 0.81295586 0.3413286 -0.47180247 107 130 226 255
1.4667046 0.02507019 -4.5961547 0.9333856 0.18960182 -0.3047005 107 130 226 255
1.1468892 -0.11818123 -5.2316556 0.8058731 0.28412953 -0.5194602 107 130 226 255
0.916203 -0.6639657 -5.847289 0.67075187 0.37754482 -0.6383978 107 130 226 255
0.5432606 -1.1181235 -6.383762 0.5630236 0.36460757 -0.7416642 107 130 226 255
1.2713206 -0.1446352 -4.913283 0.91149426 0.011329328 -0.41115674 107 130 226 255
1.4397905 -0.32671738 -4.5454144 0.958278 0.036968473 -0.283437 107 130 226 255
0.6764288 -1.3783951 -6.467816 0.7591544 0.24934581 -0.6012581 107 130 226 255
0.4457445 -2.3680453 -7.4230204 0.8568527 0.14754856 -0.49399692 107 130 226 255
0.44574404 -2.4625165 -7.252701 0.9687647 -0.16904873 -0.1814316 108 130 226 255
0.7120805 -1.7343848 -6.2567997 0.9421762 -0.058868557 -0.32990664 107 130 226 255
0.3657031 -1.3296394 -6.624043 0.43403462 0.44458732 -0.7835535 107 130 226 255
0.33005095 -2.4867754 -7.6022825 0.55688155 0.027948046 -0.8301216 107 130 226 255
1.2622328 -0.69398737 -5.270728 0.93648034 0.11160888 -0.33248755 0 0 0 255
1.2622325 -0.34070492 -5.0186625 0.910033 0.2015439 -0.36224306 107 130 226 255
1.2534957 -0.5935035 -5.2981553 0.95585877 0.13504098 -0.2609557 0 0 0 255
1.111587 -0.8142133 -5.7527966 0.86189276 0.11403232 -0.49410272 107 130 226 255
1.093761 -1.0094209 -5.653282 0.91829616 -0.16082133 -0.3617579 107 130 226 255
0.48104477 -2.5160773 -7.0344296 0.9459658 -0.015546941 -0.3238932 223 221 243 255
0.7564702 -1.8781216 -6.135115 0.8903126 0.08668345 -0.44702286 107 130 226 255
1.1335087 -1.4092436 -5.4550233 0.8899098 -0.1018035 -0.44463092 107 130 226 255
1.3954024 -0.9041276 -5.1012526 0.95168453 -0.0006712953 -0.30707687 105 127 222 255
1.1468892 -1.610959 -5.3827004 0.9343572 -0.27712002 -0.22401144 107 130 226 255
1.4044895 -1.2444234 -4.327763 0.912903 -0.3723362 -0.1672537 107 130 226 255
1.4044895 -0.7328253 -4.908849 0.9425585 0.19067897 -0.2742716 107 129 225 255
1.3954024 -0.420362 -4.811343 0.9262975 0.1885512 -0.32622305 107 130 226 255
1.5376568 -0.8317051 -4.364667 0.95776826 -0.10325282 -0.2683634 107 130 226 255
0.5698247 -2.624636 -6.9098287 0.943733 -0.25220498 -0.21391724 252 248 254 255
0.82742405 -2.0594702 -6.096876 0.93157345 -0.03413985 -0.3619468 146 154 228 255
1.2978835 -1.3868408 -4.7580175 0.9255377 -0.36544245 -0.09915573 107 130 226 255
0.7830348 -2.374771 -5.303422 0.58144265 -0.81265366 -0.038968615 253 249 254 255
0.96933126 -2.1506186 -4.0376024 0.55572706 -0.8312998 0.010399522 253 249 254 255
0.79177237 -2.1849473 -6.0894074 0.848155 -0.526686 -0.056876324 224 222 244 255
0.5432606 -2.3508542 -5.916257 0.39606035 -0.9160391 0.063312285 253 249 254 255
1.413227 -1.8399489 -2.9518833 0.43053305 -0.90107536 -0.052005354 229 226 245 255
1.6973912 -1.4896379 -2.9848554 0.90829474 -0.23677586 -0.34487376 107 130 226 255
1.9106002 -0.44545317 -2.7914681 0.9884635 0.024374193 -0.14948536 107 130 226 255
1.5998721 -0.8086791 -4.2112393 0.959328 -0.113813646 -0.25833365 107 130 226 255
1.5907848 -0.20406294 -3.982829 0.9770711 0.13421291 -0.16528459 107 130 226 255
1.4667046 0.24406481 -3.9098172 0.91648346 0.3608224 -0.17281596 107 130 226 255
1.6795641 0.3868394 -2.838052 0.9115903 0.35838035 -0.20141193 107 130 226 255
1.9724654 -0.27879286 -1.3697953 0.99873084 -0.047368396 -0.017117359 107 130 226 255
1.8039943 0.6318002 -1.7128999 0.9284451 0.3590744 -0.09515907 107 130 226 255
1.9724655 -0.3888607 0.17744792 0.99203724 -0.12282259 0.02787229 107 130 226 255
1.8662095 0.49610043 -0.00011098385 0.9579808 0.28605157 0.021149876 107 130 226 255
1.9015135 -0.38012218 1.7489085 0.99427265 -0.09947778 0.039063342 107 130 226 255
1.8039945 0.4458027 1.6779563 0.9527828 0.29538423 0.070377335 107 130 226 255
1.7505193 -0.70832586 3.6132727 0.95765734 -0.24401341 0.15280692 107 130 226 255
1.7239554 0.23259306 3.6310942 0.9466555 0.29018193 0.14013523 107 130 226 255
1.1825409 -0.75248957 5.6419353 0.92734826 -0.32142538 0.19160087 107 130 226 255
1.3422747 0.10409403 5.6872263 0.9486864 0.20898102 0.23732068 107 130 226 255
0.95150614 -0.9910493 6.957983 0.8998086 -0.387691 0.2001003 107 130 226 255
1.0049825 -0.13322449 7.0315022 0.9488091 0.15411268 0.27570015 107 130 226 255
0.6851678 -1.0019474 7.9256454 0.9313708 -0.31110734 0.1891048 107 130 226 255
0.6764293 -0.47113848 7.9852853 0.9651055 0.03269164 0.25981292 107 130 226 255
0.56108665 -1.0637774 8.56113 0.96392065 -0.26015198 -0.05637254 107 130 226 255
0.534523 -0.63190985 8.68432 0.9903846 0.1370076 -0.019164924 107 130 226 255
0.82742405 -0.70467854 9.525117 0.76224583 0.646551 0.030871011 107 130 226 255
1.6264361 -1.4073977 -1.6150897 0.7446641 -0.65171385 0.14402993 107 130 226 255
1.5020062 -1.5786414 0.2309252 0.6837615 -0.7296897 0.0048186206 253 249 254 255
1.5198332 -1.5398893 1.651176 0.7075389 -0.7061661 0.026797067 253 249 254 255
1.271321 -1.6123934 3.4356341 0.599832 -0.79238355 0.11104014 253 249 254 255
0.79177284 -1.4871163 5.5886526 0.60482544 -0.785311 0.13218506 253 249 254 255
0.5254364 -1.4367905 6.9509635 0.5810938 -0.8022839 0.13664044 107 130 226 255
0.43665695 -1.3663349 7.871892 0.6765785 -0.7310724 0.08817356 107 130 226 255
0.38352966 -1.4050527 8.93052 0.46781462 -0.8795228 -0.0871158 107 130 226 255
0.691802 -1.3552608 9.421542 0.3389881 -0.92422855 -0.17575175 107 130 226 255
2.6827013 -2.0141149 -2.1102726 0.16640359 -0.8584804 -0.48509905 107 130 226 255
2.7627435 -1.9514055 -2.0757222 0.80192673 0.28742906 -0.5237347 107 130 226 255
2.443275 -1.7365348 -1.2735691 -0.51447976 0.49518222 0.70007503 107 130 226 255
2.8871734 -2.1321342 -0.49493766 0.03838751 -0.082259126 0.9958714 107 130 226 255
2.9846897 -2.071885 -1.6987724 0.958241 0.09566776 -0.2694844 107 130 226 255
3.011251 -2.1691236 -0.9983306 0.99041545 -0.09703219 0.0982958 107 130 226 255
0.46321964 -2.7378743 -6.830155 0.5528106 -0.7990888 0.23634177 253 249 254 255
0.34787703 -2.946898 -7.319948 0.66439736 -0.74554974 -0.05226571 217 215 241 255
2.3988876 -1.4057603 11.3896885 -0.19754076 0.08860204 0.9762824 107 130 226 255
2.744917 -1.5094414 10.451622 0.72197384 0.52590114 -0.44964638 107 130 226 255
3.2153769 -1.5002875 11.716567 0.5968849 -0.012075046 0.80223596 107 130 226 255
0.9188242 -0.9079342 9.905031 0.43868154 0.8666968 0.23747669 107 130 226 255
0.5254364 -1.0258269 10.592784 0.22649226 0.9491998 0.21845137 107 130 226 255
0.39226818 -1.0452108 10.985093 -0.43821448 0.14497939 0.8871015 107 130 226 255
1.0315466 -0.9992466 9.550374 0.722003 0.44133928 -0.532852 107 130 226 255
0.3213129 -2.6797833 -7.5292444 0.60221136 -0.15721728 -0.7827032 107 130 226 255
0.3569646 -2.8618877 -7.4819336 0.702543 -0.4379157 -0.56094843 133 145 227 255
2.9224746 -2.1372306 -1.689461 0.11196001 -0.96974945 -0.21691212 107 130 226 255
2.9581232 -2.19881 -0.9932966 -0.06977212 -0.9971852 0.027450588 107 130 226 255
2.0168562 -1.2827349 9.856952 0.4824985 0.6201888 -0.61851513 107 130 226 255
2.0168571 -1.4362454 9.862229 0.28179005 -0.70698875 -0.6486612 107 130 226 255
2.744917 -1.5993958 10.458439 0.49484196 -0.77305543 -0.396884 107 130 226 255
0.9427681 -1.2226248 11.1653385 -0.005758146 -0.061631203 0.99808234 107 130 226 255
0.1881442 3.9525828 4.1015534 4.547171e-07 -0.25755233 0.96626437 107 130 226 255
-0.9215956 -1.3868408 -4.7580175 -0.9255381 -0.36544126 -0.099155754 107 130 226 255
3 3 2 1
3 1 0 3
3 5 4 2
3 2 3 5
3 6 4 5
3 5 7 6
3 8 6 7
3 11 10 9
3 12 13 3
3 3 0 12
3 14 5 3
3 3 13 14
3 7 5 14
3 17 16 15
3 19 18 15
3 15 16 19
3 21 160 20
3 21 23 22
3 23 21 20
3 24 21 22
3 22 25 24
3 0 1 24
3 24 25 0
3 26 0 25
3 27 12 0
3 0 26 27
3 27 28 9
3 9 12 27
3 11 9 28
3 30 11 28
3 28 29 30
3 31 30 29
3 29 32 31
3 33 31 32
3 32 34 33
3 35 33 34
3 34 36 35
3 37 35 36
3 36 38 37
3 39 37 38
3 38 40 39
3 23 19 41
3 22 23 41
3 42 22 41
3 42 43 22
3 25 22 43
3 43 44 25
3 26 25 44
3 44 45 26
3 27 26 45
3 45 46 27
3 28 27 46
3 46 47 28
3 48 29 28
3 28 47 48
3 32 29 48
3 50 49 42
3 42 41 50
3 19 51 50
3 50 41 19
3 52 51 19
3 19 16 52
3 53 52 16
3 50 55 54
3 54 49 50
3 51 55 50
3 53 56 52
3 59 58 57
3 57 56 59
3 62 61 60
3 60 63 62
3 17 63 53
3 53 16 17
3 62 63 17
3 65 51 64
3 64 66 65
3 51 52 67
3 67 64 51
3 66 64 67
3 67 68 66
3 57 68 67
3 67 56 57
3 69 57 58
3 58 70 69
3 71 68 57
3 57 69 71
3 72 66 68
3 283 73 72
3 72 71 74
3 56 53 63
3 65 66 75
3 76 65 75
3 54 76 75
3 77 54 75
3 72 77 75
3 66 72 75
3 69 70 79
3 79 78 69
3 71 69 78
3 78 74 71
3 283 74 80
3 283 81 73
3 81 283 80
3 82 80 74
3 74 83 82
3 84 73 81
3 81 85 84
3 87 86 73
3 73 84 87
3 86 77 73
3 88 54 77
3 77 86 88
3 89 42 49
3 89 49 88
3 88 49 54
3 90 88 86
3 86 87 90
3 91 90 87
3 87 92 91
3 93 91 92
3 92 94 93
3 95 93 94
3 94 96 95
3 97 95 96
3 96 98 97
3 99 97 98
3 98 100 99
3 101 99 100
3 100 102 101
3 103 101 102
3 102 104 103
3 105 103 104
3 104 106 105
3 89 88 90
3 43 89 90
3 42 89 43
3 44 43 90
3 90 91 44
3 45 44 91
3 91 93 45
3 46 45 93
3 93 95 46
3 47 46 95
3 95 97 47
3 48 47 97
3 97 99 48
3 32 48 99
3 99 101 32
3 34 32 101
3 101 103 34
3 36 34 103
3 103 105 36
3 107 38 36
3 36 105 107
3 40 38 107
3 92 87 84
3 84 108 92
3 94 92 108
3 108 109 94
3 96 94 109
3 109 110 96
3 98 96 110
3 110 111 98
3 100 98 111
3 111 112 100
3 102 100 112
3 112 113 102
3 104 102 113
3 113 114 104
3 106 104 114
3 114 115 106
3 116 106 115
3 117 84 85
3 85 118 117
3 108 84 117
3 117 119 108
3 121 120 119
3 121 119 122
3 122 119 117
3 123 109 108
3 108 124 123
3 126 112 111
3 111 125 126
3 128 115 114
3 114 127 128
3 130 85 81
3 81 129 130
3 124 108 85
3 85 130 124
3 129 81 80
3 80 131 129
3 131 80 82
3 82 132 131
3 132 82 134
3 134 133 132
3 82 83 134
3 136 135 133
3 133 134 136
3 139 138 137
3 40 141 140
3 140 142 40
3 142 140 143
3 143 144 142
3 106 145 107
3 107 105 106
3 116 145 106
3 59 56 63
3 63 60 59
3 61 147 146
3 146 60 61
3 59 60 146
3 146 58 59
3 74 78 83
3 79 134 83
3 83 78 79
3 134 79 136
3 148 136 79
3 79 70 148
3 58 146 148
3 148 70 58
3 149 135 136
3 136 148 149
3 146 147 149
3 149 148 146
3 55 51 65
3 76 54 55
3 73 77 72
3 56 67 52
3 65 76 55
3 151 150 121
3 121 122 151
3 151 122 117
3 117 118 151
3 120 121 150
3 108 119 118
3 118 85 108
3 119 120 150
3 119 151 118
3 150 151 119
3 10 13 12
3 12 9 10
3 10 152 14
3 14 13 10
3 7 152 282
3 125 111 110
3 110 153 125
3 153 110 109
3 109 123 153
3 127 114 113
3 113 154 127
3 112 126 154
3 154 113 112
3 115 128 155
3 155 116 115
3 157 156 138
3 138 158 157
3 157 158 145
3 145 116 157
3 137 138 156
3 40 142 39
3 116 155 144
3 116 144 143
3 143 159 116
3 116 159 157
3 157 159 139
3 139 156 157
3 156 139 137
3 158 138 139
3 139 159 158
3 159 143 140
3 140 158 159
3 158 140 141
3 158 141 145
3 141 40 107
3 107 145 141
3 18 19 20
3 20 160 18
3 19 23 20
3 1 2 161
3 161 162 1
3 2 4 163
3 163 161 2
3 163 4 6
3 6 164 163
3 164 6 8
3 165 10 11
3 167 162 161
3 161 166 167
3 161 163 168
3 168 166 161
3 168 163 164
3 15 169 17
3 15 18 170
3 170 169 15
3 171 160 21
3 21 172 171
3 172 21 173
3 173 21 24
3 24 174 173
3 24 1 162
3 162 174 24
3 174 162 175
3 162 167 176
3 176 175 162
3 176 167 165
3 165 177 176
3 177 165 11
3 177 11 30
3 30 178 177
3 178 30 31
3 31 179 178
3 179 31 33
3 33 180 179
3 180 33 35
3 35 181 180
3 181 35 37
3 37 182 181
3 182 37 39
3 39 183 182
3 184 170 172
3 173 185 184
3 173 184 172
3 173 186 185
3 186 173 174
3 174 187 186
3 187 174 175
3 175 188 187
3 188 175 176
3 176 189 188
3 189 176 177
3 177 190 189
3 177 178 191
3 191 190 177
3 191 178 179
3 185 193 192
3 192 184 185
3 192 194 170
3 170 184 192
3 170 194 195
3 195 169 170
3 169 195 196
3 198 197 192
3 192 193 198
3 192 197 194
3 195 199 196
3 202 201 200
3 200 199 202
3 204 61 62
3 62 203 204
3 196 203 17
3 17 169 196
3 17 203 62
3 207 194 206
3 206 205 207
3 208 195 194
3 194 207 208
3 208 207 205
3 205 209 208
3 208 209 202
3 202 199 208
3 201 202 211
3 211 210 201
3 202 209 212
3 212 211 202
3 209 205 213
3 213 221 214
3 214 212 213
3 203 196 199
3 216 205 206
3 216 206 217
3 216 217 198
3 216 198 218
3 216 218 213
3 216 213 205
3 219 210 211
3 211 220 219
3 220 211 212
3 212 214 220
3 222 214 221
3 221 223 222
3 223 221 215
3 222 225 224
3 224 214 222
3 223 215 227
3 227 226 223
3 215 229 228
3 228 227 215
3 215 218 229
3 218 198 230
3 230 229 218
3 193 230 198
3 230 193 231
3 185 231 193
3 229 230 232
3 232 228 229
3 228 232 234
3 234 233 228
3 233 234 236
3 236 235 233
3 235 236 238
3 238 237 235
3 237 238 240
3 240 239 237
3 239 240 242
3 242 241 239
3 241 242 244
3 244 243 241
3 243 244 246
3 246 245 243
3 245 246 248
3 248 247 245
3 232 230 231
3 232 231 186
3 186 231 185
3 232 186 187
3 187 234 232
3 234 187 188
3 188 236 234
3 236 188 189
3 189 238 236
3 238 189 190
3 190 240 238
3 240 190 191
3 191 242 240
3 242 191 179
3 179 244 242
3 244 179 180
3 180 246 244
3 246 180 181
3 181 248 246
3 249 248 181
3 181 182 249
3 249 182 183
3 227 228 233
3 233 250 227
3 250 233 235
3 235 251 250
3 251 235 237
3 237 252 251
3 252 237 239
3 239 253 252
3 253 239 241
3 241 254 253
3 254 241 243
3 243 255 254
3 255 243 245
3 245 256 255
3 256 245 247
3 247 257 256
3 257 247 258
3 226 227 260
3 260 259 226
3 260 227 250
3 250 261 260
3 263 260 261
3 263 261 264
3 264 261 262
3 250 251 123
3 123 124 250
3 253 254 126
3 126 125 253
3 256 257 128
3 128 127 256
3 223 226 130
3 130 129 223
3 226 250 124
3 124 130 226
3 222 223 129
3 129 131 222
3 225 222 131
3 131 132 225
3 265 225 132
3 132 133 265
3 265 224 225
3 133 135 266
3 266 265 133
3 269 268 267
3 271 270 183
3 183 142 271
3 272 271 142
3 142 144 272
3 249 273 247
3 247 248 249
3 247 273 258
3 203 199 200
3 200 204 203
3 274 147 61
3 61 204 274
3 274 204 200
3 200 201 274
3 224 220 214
3 224 265 219
3 219 220 224
3 266 219 265
3 266 275 210
3 210 219 266
3 275 274 201
3 201 210 275
3 266 135 149
3 149 275 266
3 149 147 274
3 274 275 149
3 206 194 197
3 197 198 217
3 213 218 215
3 195 208 199
3 197 217 206
3 264 277 276
3 276 263 264
3 260 263 276
3 276 259 260
3 277 264 262
3 259 261 250
3 250 226 259
3 261 276 277
3 276 261 259
3 262 261 277
3 167 166 10
3 10 165 167
3 168 152 10
3 10 166 168
3 152 164 282
3 164 152 168
3 252 253 125
3 125 153 252
3 251 252 153
3 153 123 251
3 255 256 127
3 127 154 255
3 154 126 254
3 254 255 154
3 155 128 257
3 257 258 155
3 268 280 279
3 279 278 268
3 273 278 279
3 279 258 273
3 280 268 269
3 39 142 183
3 144 155 258
3 258 281 272
3 281 258 279
3 144 258 272
3 267 281 279
3 279 280 267
3 269 267 280
3 267 268 278
3 278 281 267
3 271 272 281
3 281 278 271
3 270 271 278
3 273 270 278
3 249 183 270
3 270 273 249
3 171 170 18
3 18 160 171
3 171 172 170
3 213 212 209
3 68 71 72
3 152 7 14
3 7 282 8
3 282 164 8
3 221 213 215
3 283 72 74
