ply
format ascii 1.0
comment Feeney's Flatenator generated
comment TextureFile SpaceInteriors_Texture.png
element vertex 408
property float x
property float y
property float z
property float nx
property float ny
property float nz
property uchar red
property uchar green
property uchar blue
property uchar alpha
property float texture_u
property float texture_v
element face 136
property list uchar int vertex_indices
end_header
0.037189 0.162543 -0.09663 0.00197607 0.00281915 0.014647 117 125 88 255 0.17629 0.302383 
0.010035 -0.090799 -0.044205 0.00197607 0.00281915 0.014647 117 125 88 255 0.17629 0.302383 
0.06785 -0.090799 -0.052005 0.00197607 0.00281915 0.014647 117 125 88 255 0.17629 0.302383 
0.037189 0.162543 -0.09663 0.000348359 0.00107921 0.00588747 117 125 88 255 0.17629 0.302383 
0.06785 -0.090799 -0.052005 0.000348359 0.00107921 0.00588747 117 125 88 255 0.17629 0.302383 
0.060431 0.16252 -0.098001 0.000348359 0.00107921 0.00588747 117 125 88 255 0.17629 0.302383 
0.06785 -0.090799 -0.052005 0.00805963 0.000228789 -0.00046811 117 125 88 255 0.17629 0.302383 
0.066001 -0.090799 -0.08384 0.00805963 0.000228789 -0.00046811 117 125 88 255 0.17629 0.302383 
0.056863 0.16237 -0.117436 0.00805963 0.000228789 -0.00046811 117 125 88 255 0.17629 0.302383 
0.06785 -0.090799 -0.052005 0.00493015 -1.99256e-05 -0.000904955 117 125 88 255 0.17629 0.302383 
0.056863 0.16237 -0.117436 0.00493015 -1.99256e-05 -0.000904955 117 125 88 255 0.17629 0.302383 
0.060431 0.16252 -0.098001 0.00493015 -1.99256e-05 -0.000904955 117 125 88 255 0.17629 0.302383 
0.033622 0.162393 -0.116064 -0.000348121 -0.000793342 -0.00588369 117 125 88 255 0.17629 0.302383 
0.056863 0.16237 -0.117436 -0.000348121 -0.000793342 -0.00588369 117 125 88 255 0.17629 0.302383 
0.066001 -0.090799 -0.08384 -0.000348121 -0.000793342 -0.00588369 117 125 88 255 0.17629 0.302383 
0.033622 0.162393 -0.116064 -0.0019749 -0.00211526 -0.0146358 117 125 88 255 0.17629 0.302383 
0.066001 -0.090799 -0.08384 -0.0019749 -0.00211526 -0.0146358 117 125 88 255 0.17629 0.302383 
0.008196 -0.090799 -0.07604 -0.0019749 -0.00211526 -0.0146358 117 125 88 255 0.17629 0.302383 
0.033622 0.162393 -0.116064 -0.00806037 0.000883041 0.00046562 117 125 88 255 0.17629 0.302383 
0.008196 -0.090799 -0.07604 -0.00806037 0.000883041 0.00046562 117 125 88 255 0.17629 0.302383 
0.010035 -0.090799 -0.044205 -0.00806037 0.000883041 0.00046562 117 125 88 255 0.17629 0.302383 
0.033622 0.162393 -0.116064 -0.00493131 0.000714711 0.000899598 117 125 88 255 0.17629 0.302383 
0.010035 -0.090799 -0.044205 -0.00493131 0.000714711 0.000899598 117 125 88 255 0.17629 0.302383 
0.037189 0.162543 -0.09663 -0.00493131 0.000714711 0.000899598 117 125 88 255 0.17629 0.302383 
0.046392 0.263408 0.071586 -0.0191091 0.0027236 -0.00786446 117 125 88 255 0.17629 0.302383 
0.015529 -0.090799 0.023909 -0.0191091 0.0027236 -0.00786446 117 125 88 255 0.17629 0.302383 
-0.006674 -0.090799 0.077858 -0.0191091 0.0027236 -0.00786446 117 125 88 255 0.17629 0.302383 
0.046392 0.263408 0.071586 -0.00839454 0.00118298 -0.00421647 117 125 88 255 0.17629 0.302383 
-0.006674 -0.090799 0.077858 -0.00839454 0.00118298 -0.00421647 117 125 88 255 0.17629 0.302383 
0.034484 0.263381 0.095286 -0.00839454 0.00118298 -0.00421647 117 125 88 255 0.17629 0.302383 
-0.006674 -0.090799 0.077858 -0.00507757 0.000182415 0.0100822 117 125 88 255 0.17629 0.302383 
0.021806 -0.090799 0.092201 -0.00507757 0.000182415 0.0100822 117 125 88 255 0.17629 0.302383 
0.055685 0.263211 0.102858 -0.00507757 0.000182415 0.0100822 117 125 88 255 0.17629 0.302383 
-0.006674 -0.090799 0.077858 -0.00268481 -5.78425e-05 0.00751597 117 125 88 255 0.17629 0.302383 
0.055685 0.263211 0.102858 -0.00268481 -5.78425e-05 0.00751597 117 125 88 255 0.17629 0.302383 
0.034484 0.263381 0.095286 -0.00268481 -5.78425e-05 0.00751597 117 125 88 255 0.17629 0.302383 
0.067593 0.263238 0.079157 0.00839068 -0.00092987 0.00421464 117 125 88 255 0.17629 0.302383 
0.055685 0.263211 0.102858 0.00839068 -0.00092987 0.00421464 117 125 88 255 0.17629 0.302383 
0.021806 -0.090799 0.092201 0.00839068 -0.00092987 0.00421464 117 125 88 255 0.17629 0.302383 
0.067593 0.263238 0.079157 0.0190968 -0.0021802 0.00785891 117 125 88 255 0.17629 0.302383 
0.021806 -0.090799 0.092201 0.0190968 -0.0021802 0.00785891 117 125 88 255 0.17629 0.302383 
0.044004 -0.090799 0.038261 0.0190968 -0.0021802 0.00785891 117 125 88 255 0.17629 0.302383 
0.067593 0.263238 0.079157 0.00508114 0.000825964 -0.0100812 117 125 88 255 0.17629 0.302383 
0.044004 -0.090799 0.038261 0.00508114 0.000825964 -0.0100812 117 125 88 255 0.17629 0.302383 
0.015529 -0.090799 0.023909 0.00508114 0.000825964 -0.0100812 117 125 88 255 0.17629 0.302383 
0.067593 0.263238 0.079157 0.00268981 0.000777136 -0.00751479 117 125 88 255 0.17629 0.302383 
0.015529 -0.090799 0.023909 0.00268981 0.000777136 -0.00751479 117 125 88 255 0.17629 0.302383 
0.046392 0.263408 0.071586 0.00268981 0.000777136 -0.00751479 117 125 88 255 0.17629 0.302383 
-0.055792 0.400787 -0.03371 -0.0180338 0.00268457 0.0222993 117 125 88 255 0.17629 0.302383 
-0.108818 -0.090799 -0.017412 -0.0180338 0.00268457 0.0222993 117 125 88 255 0.17629 0.302383 
-0.063456 -0.090799 0.019273 -0.0180338 0.00268457 0.0222993 117 125 88 255 0.17629 0.302383 
-0.055792 0.400787 -0.03371 -0.0097299 0.0012659 0.0103378 117 125 88 255 0.17629 0.302383 
-0.063456 -0.090799 0.019273 -0.0097299 0.0012659 0.0103378 117 125 88 255 0.17629 0.302383 
-0.034763 0.400758 -0.013914 -0.0097299 0.0012659 0.0103378 117 125 88 255 0.17629 0.302383 
-0.063456 -0.090799 0.019273 0.0113993 0.000156752 0.0107507 117 125 88 255 0.17629 0.302383 
-0.041577 -0.090799 -0.003926 0.0113993 0.000156752 0.0107507 117 125 88 255 0.17629 0.302383 
-0.02027 0.400573 -0.033683 0.0113993 0.000156752 0.0107507 117 125 88 255 0.17629 0.302383 
-0.063456 -0.090799 0.019273 0.00972373 -8.62525e-05 0.00712944 117 125 88 255 0.17629 0.302383 
-0.02027 0.400573 -0.033683 0.00972373 -8.62525e-05 0.00712944 117 125 88 255 0.17629 0.302383 
-0.034763 0.400758 -0.013914 0.00972373 -8.62525e-05 0.00712944 117 125 88 255 0.17629 0.302383 
-0.0413 0.400602 -0.053479 0.00972634 -0.00104758 -0.0103342 117 125 88 255 0.17629 0.302383 
-0.02027 0.400573 -0.033683 0.00972634 -0.00104758 -0.0103342 117 125 88 255 0.17629 0.302383 
-0.041577 -0.090799 -0.003926 0.00972634 -0.00104758 -0.0103342 117 125 88 255 0.17629 0.302383 
-0.0413 0.400602 -0.053479 0.0180231 -0.00225764 -0.0222875 117 125 88 255 0.17629 0.302383 
-0.041577 -0.090799 -0.003926 0.0180231 -0.00225764 -0.0222875 117 125 88 255 0.17629 0.302383 
-0.086932 -0.090799 -0.040603 0.0180231 -0.00225764 -0.0222875 117 125 88 255 0.17629 0.302383 
-0.0413 0.400602 -0.053479 -0.0113961 0.000776448 -0.0107548 117 125 88 255 0.17629 0.302383 
-0.086932 -0.090799 -0.040603 -0.0113961 0.000776448 -0.0107548 117 125 88 255 0.17629 0.302383 
-0.108818 -0.090799 -0.017412 -0.0113961 0.000776448 -0.0107548 117 125 88 255 0.17629 0.302383 
-0.0413 0.400602 -0.053479 -0.00972118 0.00081208 -0.00713387 117 125 88 255 0.17629 0.302383 
-0.108818 -0.090799 -0.017412 -0.00972118 0.00081208 -0.00713387 117 125 88 255 0.17629 0.302383 
-0.055792 0.400787 -0.03371 -0.00972118 0.00081208 -0.00713387 117 125 88 255 0.17629 0.302383 
0.105401 0.25003 -0.167997 0.00200665 -0.000966955 -0.0032438 161 140 58 255 0.47224 0.339125 
0.121017 0.205216 -0.144978 0.00200665 -0.000966955 -0.0032438 161 140 58 255 0.47224 0.339125 
0.049445 0.202887 -0.188559 0.00200665 -0.000966955 -0.0032438 161 140 58 255 0.47224 0.339125 
0.046139 0.14508 -0.105781 -0.00083424 -0.00364724 -0.00258032 161 140 58 255 0.47224 0.339125 
0.003495 0.179926 -0.141248 -0.00083424 -0.00364724 -0.00258032 161 140 58 255 0.47224 0.339125 
0.049445 0.202887 -0.188559 -0.00083424 -0.00364724 -0.00258032 161 140 58 255 0.47224 0.339125 
0.044864 0.203335 -0.025155 -0.000116516 0.00178614 0.00400065 161 140 58 255 0.47224 0.339125 
0.109817 0.235458 -0.037605 -0.000116516 0.00178614 0.00400065 161 140 58 255 0.47224 0.339125 
-0.014856 0.235393 -0.041207 -0.000116516 0.00178614 0.00400065 161 140 58 255 0.47224 0.339125 
0.046139 0.14508 -0.105781 0.00044768 -0.00310386 0.00224972 161 140 58 255 0.47224 0.339125 
0.083995 0.179919 -0.065248 0.00044768 -0.00310386 0.00224972 161 140 58 255 0.47224 0.339125 
0.044864 0.203335 -0.025155 0.00044768 -0.00310386 0.00224972 161 140 58 255 0.47224 0.339125 
-0.014856 0.235393 -0.041207 -0.0020944 -0.00313308 0.00153485 161 140 58 255 0.47224 0.339125 
-0.037659 0.221933 -0.099799 -0.0020944 -0.00313308 0.00153485 161 140 58 255 0.47224 0.339125 
0.044864 0.203335 -0.025155 -0.0020944 -0.00313308 0.00153485 161 140 58 255 0.47224 0.339125 
0.131911 0.222377 -0.113916 0.00178704 0.000234295 -0.00075619 161 140 58 255 0.47224 0.339125 
0.121017 0.205216 -0.144978 0.00178704 0.000234295 -0.00075619 161 140 58 255 0.47224 0.339125 
0.105401 0.25003 -0.167997 0.00178704 0.000234295 -0.00075619 161 140 58 255 0.47224 0.339125 
0.046139 0.14508 -0.105781 0.0025406 -0.00275287 0.00062986 161 140 58 255 0.47224 0.339125 
0.121017 0.205216 -0.144978 0.0025406 -0.00275287 0.00062986 161 140 58 255 0.47224 0.339125 
0.131911 0.222377 -0.113916 0.0025406 -0.00275287 0.00062986 161 140 58 255 0.47224 0.339125 
0.077849 0.36308 0.17957 0.000370626 0.000321323 0.000475595 161 140 58 255 0.47224 0.339125 
0.081005 0.346135 0.188559 0.000370626 0.000321323 0.000475595 161 140 58 255 0.47224 0.339125 
0.110421 0.338892 0.170529 0.000370626 0.000321323 0.000475595 161 140 58 255 0.47224 0.339125 
0.090373 0.309261 0.002962 0.000186933 -0.000259161 -0.00157214 161 140 58 255 0.47224 0.339125 
0.021434 0.346404 -0.011358 0.000186933 -0.000259161 -0.00157214 161 140 58 255 0.47224 0.339125 
0.092223 0.331069 -0.000413 0.000186933 -0.000259161 -0.00157214 161 140 58 255 0.47224 0.339125 
0.081005 0.346135 0.188559 0.00130189 -0.00449468 0.00436903 161 140 58 255 0.47224 0.339125 
0.011211 0.309371 0.171535 0.00130189 -0.00449468 0.00436903 161 140 58 255 0.47224 0.339125 
0.130051 0.309371 0.136123 0.00130189 -0.00449468 0.00436903 161 140 58 255 0.47224 0.339125 
0.05031 0.243512 0.085632 0.00344121 -0.00473397 0.000740115 161 140 58 255 0.47224 0.339125 
0.109616 0.283212 0.063817 0.00344121 -0.00473397 0.000740115 161 140 58 255 0.47224 0.339125 
0.130051 0.309371 0.136123 0.00344121 -0.00473397 0.000740115 161 140 58 255 0.47224 0.339125 
-0.028468 0.309881 0.038374 -0.00198884 -1.27578e-05 -0.00130564 161 140 58 255 0.47224 0.339125 
-0.050662 0.340438 0.071883 -0.00198884 -1.27578e-05 -0.00130564 161 140 58 255 0.47224 0.339125 
-0.007937 0.340442 0.006801 -0.00198884 -1.27578e-05 -0.00130564 161 140 58 255 0.47224 0.339125 
0.05031 0.243512 0.085632 -0.00281847 -0.00402859 -0.000959418 161 140 58 255 0.47224 0.339125 
-0.011259 0.283204 0.099836 -0.00281847 -0.00402859 -0.000959418 161 140 58 255 0.47224 0.339125 
-0.028468 0.309881 0.038374 -0.00281847 -0.00402859 -0.000959418 161 140 58 255 0.47224 0.339125 
0.021434 0.346404 -0.011358 -0.00132419 -0.00414307 -0.00437137 161 140 58 255 0.47224 0.339125 
0.090373 0.309261 0.002962 -0.00132419 -0.00414307 -0.00437137 161 140 58 255 0.47224 0.339125 
-0.028468 0.309881 0.038374 -0.00132419 -0.00414307 -0.00437137 161 140 58 255 0.47224 0.339125 
0.023987 0.363459 -0.001188 -0.000370335 0.000345063 -0.000485702 161 140 58 255 0.47224 0.339125 
0.021434 0.346404 -0.011358 -0.000370335 0.000345063 -0.000485702 161 140 58 255 0.47224 0.339125 
-0.007937 0.340442 0.006801 -0.000370335 0.000345063 -0.000485702 161 140 58 255 0.47224 0.339125 
0.011211 0.309371 0.171535 -0.000255981 -0.000262579 0.00161651 161 140 58 255 0.47224 0.339125 
0.081005 0.346135 0.188559 -0.000255981 -0.000262579 0.00161651 161 140 58 255 0.47224 0.339125 
0.009394 0.331575 0.174854 -0.000255981 -0.000262579 0.00161651 161 140 58 255 0.47224 0.339125 
-0.045896 0.50984 0.071915 0.000347326 0.000447449 0.000864084 161 140 58 255 0.47224 0.339125 
-0.047183 0.491238 0.082065 0.000347326 0.000447449 0.000864084 161 140 58 255 0.47224 0.339125 
-0.001301 0.483012 0.067882 0.000347326 0.000447449 0.000864084 161 140 58 255 0.47224 0.339125 
-0.113726 0.450714 -0.100941 -0.00172304 -0.000307321 -0.000744671 161 140 58 255 0.47224 0.339125 
-0.150105 0.491157 -0.033457 -0.00172304 -0.000307321 -0.000744671 161 140 58 255 0.47224 0.339125 
-0.116673 0.47446 -0.103922 -0.00172304 -0.000307321 -0.000744671 161 140 58 255 0.47224 0.339125 
-0.047183 0.491238 0.082065 0.000591911 -0.00210701 0.00313688 161 140 58 255 0.47224 0.339125 
-0.04424 0.422342 0.035233 0.000591911 -0.00210701 0.00313688 161 140 58 255 0.47224 0.339125 
-0.001301 0.483012 0.067882 0.000591911 -0.00210701 0.00313688 161 140 58 255 0.47224 0.339125 
0.077032 0.490864 -0.033457 0.00234136 -0.00161495 0.000534501 161 140 58 255 0.47224 0.339125 
0.029735 0.422301 -0.033431 0.00234136 -0.00161495 0.000534501 161 140 58 255 0.47224 0.339125 
0.059206 0.453722 -0.067592 0.00234136 -0.00161495 0.000534501 161 140 58 255 0.47224 0.339125 
-0.039917 0.379124 -0.033431 0.00200593 -0.00561246 -0.00365931 161 140 58 255 0.47224 0.339125 
-0.04424 0.422351 -0.1021 0.00200593 -0.00561246 -0.00365931 161 140 58 255 0.47224 0.339125 
0.037565 0.450833 -0.100941 0.00200593 -0.00561246 -0.00365931 161 140 58 255 0.47224 0.339125 
-0.116673 0.47446 -0.103922 -0.000788866 0.00111946 -0.000499599 161 140 58 255 0.47224 0.339125 
-0.045896 0.509202 -0.137832 -0.000788866 0.00111946 -0.000499599 161 140 58 255 0.47224 0.339125 
-0.085667 0.482621 -0.134594 -0.000788866 0.00111946 -0.000499599 161 140 58 255 0.47224 0.339125 
-0.113726 0.45139 0.03408 -0.000775316 -0.000307996 0.000953205 161 140 58 255 0.47224 0.339125 
-0.082916 0.453952 0.059968 -0.000775316 -0.000307996 0.000953205 161 140 58 255 0.47224 0.339125 
-0.08566 0.484662 0.067659 -0.000775316 -0.000307996 0.000953205 161 140 58 255 0.47224 0.339125 
-0.039917 0.379124 -0.033431 -0.00204438 -0.00477617 0.00287747 161 140 58 255 0.47224 0.339125 
-0.04424 0.422342 0.035233 -0.00204438 -0.00477617 0.00287747 161 140 58 255 0.47224 0.339125 
-0.113726 0.45139 0.03408 -0.00204438 -0.00477617 0.00287747 161 140 58 255 0.47224 0.339125 
-0.150105 0.491157 -0.033457 -0.00541504 -0.00491193 2.45924e-05 161 140 58 255 0.47224 0.339125 
-0.113726 0.450714 -0.100941 -0.00541504 -0.00491193 2.45924e-05 161 140 58 255 0.47224 0.339125 
-0.113726 0.45139 0.03408 -0.00541504 -0.00491193 2.45924e-05 161 140 58 255 0.47224 0.339125 
-0.138699 0.509727 -0.032959 -0.00188096 0.00112124 0.00127083 161 140 58 255 0.47224 0.339125 
-0.150105 0.491157 -0.033457 -0.00188096 0.00112124 0.00127083 161 140 58 255 0.47224 0.339125 
-0.08566 0.484662 0.067659 -0.00188096 0.00112124 0.00127083 161 140 58 255 0.47224 0.339125 
0.037565 0.450833 0.03408 0.000849465 -0.000177853 0.000627284 161 140 58 255 0.47224 0.339125 
0.067365 0.482978 0.002839 0.000849465 -0.000177853 0.000627284 161 140 58 255 0.47224 0.339125 
0.040465 0.475011 0.037008 0.000849465 -0.000177853 0.000627284 161 140 58 255 0.47224 0.339125 
-0.039917 0.379124 -0.033431 0.00291492 -0.00470228 0.00164923 161 140 58 255 0.47224 0.339125 
0.029735 0.422301 -0.033431 0.00291492 -0.00470228 0.00164923 161 140 58 255 0.47224 0.339125 
0.037565 0.450833 0.03408 0.00291492 -0.00470228 0.00164923 161 140 58 255 0.47224 0.339125 
0.066671 0.509314 -0.032959 -1.97617e-05 0.0070754 -0.00341295 161 140 58 255 0.47224 0.339125 
0.040464 0.475011 -0.103921 -1.97617e-05 0.0070754 -0.00341295 161 140 58 255 0.47224 0.339125 
-0.031234 0.511394 -0.02808 -1.97617e-05 0.0070754 -0.00341295 161 140 58 255 0.47224 0.339125 
-0.116673 0.47446 -0.103922 5.37706e-05 0.0077335 -0.00382669 161 140 58 255 0.47224 0.339125 
-0.138699 0.509727 -0.032959 5.37706e-05 0.0077335 -0.00382669 161 140 58 255 0.47224 0.339125 
-0.031234 0.511394 -0.02808 5.37706e-05 0.0077335 -0.00382669 161 140 58 255 0.47224 0.339125 
0.067365 0.482978 0.002839 0.00248836 -0.00171644 0.000289814 161 140 58 255 0.47224 0.339125 
0.029735 0.422301 -0.033431 0.00248836 -0.00171644 0.000289814 161 140 58 255 0.47224 0.339125 
0.077032 0.490864 -0.033457 0.00248836 -0.00171644 0.000289814 161 140 58 255 0.47224 0.339125 
0.037565 0.450833 0.03408 0.00306151 -0.00225644 0.000598558 161 140 58 255 0.47224 0.339125 
0.029735 0.422301 -0.033431 0.00306151 -0.00225644 0.000598558 161 140 58 255 0.47224 0.339125 
0.067365 0.482978 0.002839 0.00306151 -0.00225644 0.000598558 161 140 58 255 0.47224 0.339125 
0.066671 0.509314 -0.032959 0.000673588 0.000371249 0.000260063 161 140 58 255 0.47224 0.339125 
0.067365 0.482978 0.002839 0.000673588 0.000371249 0.000260063 161 140 58 255 0.47224 0.339125 
0.077032 0.490864 -0.033457 0.000673588 0.000371249 0.000260063 161 140 58 255 0.47224 0.339125 
0.040465 0.475011 0.037008 0.000614673 0.000986679 0.000713968 161 140 58 255 0.47224 0.339125 
0.067365 0.482978 0.002839 0.000614673 0.000986679 0.000713968 161 140 58 255 0.47224 0.339125 
0.066671 0.509314 -0.032959 0.000614673 0.000986679 0.000713968 161 140 58 255 0.47224 0.339125 
-0.045896 0.50984 0.071915 0.000215574 0.00971847 0.000182643 161 140 58 255 0.47224 0.339125 
0.066671 0.509314 -0.032959 0.000215574 0.00971847 0.000182643 161 140 58 255 0.47224 0.339125 
-0.031234 0.511394 -0.02808 0.000215574 0.00971847 0.000182643 161 140 58 255 0.47224 0.339125 
-0.138699 0.509727 -0.032959 -0.000174276 0.0108175 0.00014256 161 140 58 255 0.47224 0.339125 
-0.045896 0.50984 0.071915 -0.000174276 0.0108175 0.00014256 161 140 58 255 0.47224 0.339125 
-0.031234 0.511394 -0.02808 -0.000174276 0.0108175 0.00014256 161 140 58 255 0.47224 0.339125 
-0.113726 0.45139 0.03408 -0.00358243 0.000673922 0.0023265 161 140 58 255 0.47224 0.339125 
-0.08566 0.484662 0.067659 -0.00358243 0.000673922 0.0023265 161 140 58 255 0.47224 0.339125 
-0.150105 0.491157 -0.033457 -0.00358243 0.000673922 0.0023265 161 140 58 255 0.47224 0.339125 
-0.113726 0.45139 0.03408 -0.00971179 -0.00996576 4.98953e-05 161 140 58 255 0.47224 0.339125 
-0.113726 0.450714 -0.100941 -0.00971179 -0.00996576 4.98953e-05 161 140 58 255 0.47224 0.339125 
-0.039917 0.379124 -0.033431 -0.00971179 -0.00996576 4.98953e-05 161 140 58 255 0.47224 0.339125 
-0.113726 0.450714 -0.100941 -0.00199776 -0.00477654 -0.00288106 161 140 58 255 0.47224 0.339125 
-0.04424 0.422351 -0.1021 -0.00199776 -0.00477654 -0.00288106 161 140 58 255 0.47224 0.339125 
-0.039917 0.379124 -0.033431 -0.00199776 -0.00477654 -0.00288106 161 140 58 255 0.47224 0.339125 
-0.04424 0.422351 -0.1021 -0.000601898 -0.00184643 -0.00265739 161 140 58 255 0.47224 0.339125 
-0.085667 0.482621 -0.134594 -0.000601898 -0.00184643 -0.00265739 161 140 58 255 0.47224 0.339125 
-0.047183 0.490779 -0.148979 -0.000601898 -0.00184643 -0.00265739 161 140 58 255 0.47224 0.339125 
-0.113726 0.450714 -0.100941 -0.00099148 -0.00230589 -0.00301293 161 140 58 255 0.47224 0.339125 
-0.085667 0.482621 -0.134594 -0.00099148 -0.00230589 -0.00301293 161 140 58 255 0.47224 0.339125 
-0.04424 0.422351 -0.1021 -0.00099148 -0.00230589 -0.00301293 161 140 58 255 0.47224 0.339125 
-0.082916 0.453952 0.059968 0.000223782 -0.00173848 0.00257159 161 140 58 255 0.47224 0.339125 
-0.04424 0.422342 0.035233 0.000223782 -0.00173848 0.00257159 161 140 58 255 0.47224 0.339125 
-0.047183 0.491238 0.082065 0.000223782 -0.00173848 0.00257159 161 140 58 255 0.47224 0.339125 
-0.113726 0.45139 0.03408 -0.000754948 -0.00176333 0.00107299 161 140 58 255 0.47224 0.339125 
-0.04424 0.422342 0.035233 -0.000754948 -0.00176333 0.00107299 161 140 58 255 0.47224 0.339125 
-0.082916 0.453952 0.059968 -0.000754948 -0.00176333 0.00107299 161 140 58 255 0.47224 0.339125 
-0.045896 0.50984 0.071915 -0.000334727 0.000409082 0.000707286 161 140 58 255 0.47224 0.339125 
-0.08566 0.484662 0.067659 -0.000334727 0.000409082 0.000707286 161 140 58 255 0.47224 0.339125 
-0.047183 0.491238 0.082065 -0.000334727 0.000409082 0.000707286 161 140 58 255 0.47224 0.339125 
-0.047183 0.491238 0.082065 -0.000391832 -0.000335457 0.00119967 161 140 58 255 0.47224 0.339125 
-0.08566 0.484662 0.067659 -0.000391832 -0.000335457 0.00119967 161 140 58 255 0.47224 0.339125 
-0.082916 0.453952 0.059968 -0.000391832 -0.000335457 0.00119967 161 140 58 255 0.47224 0.339125 
-0.08566 0.484662 0.067659 -0.00264004 0.00377524 0.0023321 161 140 58 255 0.47224 0.339125 
-0.045896 0.50984 0.071915 -0.00264004 0.00377524 0.0023321 161 140 58 255 0.47224 0.339125 
-0.138699 0.509727 -0.032959 -0.00264004 0.00377524 0.0023321 161 140 58 255 0.47224 0.339125 
-0.045896 0.509202 -0.137832 -0.00388734 0.00826511 0.000354243 161 140 58 255 0.47224 0.339125 
-0.116673 0.47446 -0.103922 -0.00388734 0.00826511 0.000354243 161 140 58 255 0.47224 0.339125 
-0.031234 0.511394 -0.02808 -0.00388734 0.00826511 0.000354243 161 140 58 255 0.47224 0.339125 
-0.047183 0.490779 -0.148979 -0.000355952 0.000447494 -0.000698491 161 140 58 255 0.47224 0.339125 
-0.085667 0.482621 -0.134594 -0.000355952 0.000447494 -0.000698491 161 140 58 255 0.47224 0.339125 
-0.045896 0.509202 -0.137832 -0.000355952 0.000447494 -0.000698491 161 140 58 255 0.47224 0.339125 
-0.116673 0.47446 -0.103922 -0.00070401 -0.000182819 -0.000760319 161 140 58 255 0.47224 0.339125 
-0.085667 0.482621 -0.134594 -0.00070401 -0.000182819 -0.000760319 161 140 58 255 0.47224 0.339125 
-0.113726 0.450714 -0.100941 -0.00070401 -0.000182819 -0.000760319 161 140 58 255 0.47224 0.339125 
0.037565 0.450833 -0.100941 0.00141451 -0.00383153 -0.00568158 161 140 58 255 0.47224 0.339125 
-0.04424 0.422351 -0.1021 0.00141451 -0.00383153 -0.00568158 161 140 58 255 0.47224 0.339125 
-0.047183 0.490779 -0.148979 0.00141451 -0.00383153 -0.00568158 161 140 58 255 0.47224 0.339125 
0.037565 0.450833 -0.100941 0.00291488 -0.00470221 -0.00164923 161 140 58 255 0.47224 0.339125 
0.029735 0.422301 -0.033431 0.00291488 -0.00470221 -0.00164923 161 140 58 255 0.47224 0.339125 
-0.039917 0.379124 -0.033431 0.00291488 -0.00470221 -0.00164923 161 140 58 255 0.47224 0.339125 
0.059206 0.453722 -0.067592 0.00114655 -0.00172211 -0.00059484 161 140 58 255 0.47224 0.339125 
0.029735 0.422301 -0.033431 0.00114655 -0.00172211 -0.00059484 161 140 58 255 0.47224 0.339125 
0.037565 0.450833 -0.100941 0.00114655 -0.00172211 -0.00059484 161 140 58 255 0.47224 0.339125 
0.037565 0.450833 0.03408 0.00200614 -0.00561207 0.00365862 161 140 58 255 0.47224 0.339125 
-0.04424 0.422342 0.035233 0.00200614 -0.00561207 0.00365862 161 140 58 255 0.47224 0.339125 
-0.039917 0.379124 -0.033431 0.00200614 -0.00561207 0.00365862 161 140 58 255 0.47224 0.339125 
-0.001301 0.483012 0.067882 0.00100015 -0.00272036 0.00373973 161 140 58 255 0.47224 0.339125 
-0.04424 0.422342 0.035233 0.00100015 -0.00272036 0.00373973 161 140 58 255 0.47224 0.339125 
0.037565 0.450833 0.03408 0.00100015 -0.00272036 0.00373973 161 140 58 255 0.47224 0.339125 
-0.116673 0.47446 -0.103922 -0.00130022 0.000820373 -0.000811278 161 140 58 255 0.47224 0.339125 
-0.150105 0.491157 -0.033457 -0.00130022 0.000820373 -0.000811278 161 140 58 255 0.47224 0.339125 
-0.138699 0.509727 -0.032959 -0.00130022 0.000820373 -0.000811278 161 140 58 255 0.47224 0.339125 
0.040464 0.475011 -0.103921 0.00207603 -7.84243e-06 -0.00107561 161 140 58 255 0.47224 0.339125 
0.077032 0.490864 -0.033457 0.00207603 -7.84243e-06 -0.00107561 161 140 58 255 0.47224 0.339125 
0.059206 0.453722 -0.067592 0.00207603 -7.84243e-06 -0.00107561 161 140 58 255 0.47224 0.339125 
0.040464 0.475011 -0.103921 0.000814921 -0.000161169 -0.000514861 161 140 58 255 0.47224 0.339125 
0.059206 0.453722 -0.067592 0.000814921 -0.000161169 -0.000514861 161 140 58 255 0.47224 0.339125 
0.037565 0.450833 -0.100941 0.000814921 -0.000161169 -0.000514861 161 140 58 255 0.47224 0.339125 
0.066671 0.509314 -0.032959 0.00129217 0.000748288 -0.000838932 161 140 58 255 0.47224 0.339125 
0.077032 0.490864 -0.033457 0.00129217 0.000748288 -0.000838932 161 140 58 255 0.47224 0.339125 
0.040464 0.475011 -0.103921 0.00129217 0.000748288 -0.000838932 161 140 58 255 0.47224 0.339125 
0.040464 0.475011 -0.103921 0.00100587 0.000919011 -0.00163501 161 140 58 255 0.47224 0.339125 
-0.047183 0.490779 -0.148979 0.00100587 0.000919011 -0.00163501 161 140 58 255 0.47224 0.339125 
-0.045896 0.509202 -0.137832 0.00100587 0.000919011 -0.00163501 161 140 58 255 0.47224 0.339125 
-0.047183 0.490779 -0.148979 0.00104242 -0.000391811 -0.00216484 161 140 58 255 0.47224 0.339125 
0.040464 0.475011 -0.103921 0.00104242 -0.000391811 -0.00216484 161 140 58 255 0.47224 0.339125 
0.037565 0.450833 -0.100941 0.00104242 -0.000391811 -0.00216484 161 140 58 255 0.47224 0.339125 
0.040464 0.475011 -0.103921 0.00382687 0.00898098 -0.000690612 161 140 58 255 0.47224 0.339125 
-0.045896 0.509202 -0.137832 0.00382687 0.00898098 -0.000690612 161 140 58 255 0.47224 0.339125 
-0.031234 0.511394 -0.02808 0.00382687 0.00898098 -0.000690612 161 140 58 255 0.47224 0.339125 
0.040465 0.475011 0.037008 0.000723045 -0.000211825 0.00103302 161 140 58 255 0.47224 0.339125 
-0.001301 0.483012 0.067882 0.000723045 -0.000211825 0.00103302 161 140 58 255 0.47224 0.339125 
0.037565 0.450833 0.03408 0.000723045 -0.000211825 0.00103302 161 140 58 255 0.47224 0.339125 
-0.045896 0.50984 0.071915 0.00079602 0.00120838 0.000763695 161 140 58 255 0.47224 0.339125 
-0.001301 0.483012 0.067882 0.00079602 0.00120838 0.000763695 161 140 58 255 0.47224 0.339125 
0.040465 0.475011 0.037008 0.00079602 0.00120838 0.000763695 161 140 58 255 0.47224 0.339125 
-0.045896 0.50984 0.071915 0.0036343 0.00512765 0.00387517 161 140 58 255 0.47224 0.339125 
0.040465 0.475011 0.037008 0.0036343 0.00512765 0.00387517 161 140 58 255 0.47224 0.339125 
0.066671 0.509314 -0.032959 0.0036343 0.00512765 0.00387517 161 140 58 255 0.47224 0.339125 
0.077849 0.36308 0.17957 0.00207063 0.00303607 -0.000662725 161 140 58 255 0.47224 0.339125 
0.110421 0.338892 0.170529 0.00207063 0.00303607 -0.000662725 161 140 58 255 0.47224 0.339125 
0.047878 0.36499 0.094678 0.00207063 0.00303607 -0.000662725 161 140 58 255 0.47224 0.339125 
0.023987 0.363459 -0.001188 -0.00015729 0.00912419 -0.000106517 161 140 58 255 0.47224 0.339125 
-0.043979 0.363562 0.107998 -0.00015729 0.00912419 -0.000106517 161 140 58 255 0.47224 0.339125 
0.047878 0.36499 0.094678 -0.00015729 0.00912419 -0.000106517 161 140 58 255 0.47224 0.339125 
0.092223 0.331069 -0.000413 0.00310629 0.006523 -0.000878299 161 140 58 255 0.47224 0.339125 
0.023987 0.363459 -0.001188 0.00310629 0.006523 -0.000878299 161 140 58 255 0.47224 0.339125 
0.047878 0.36499 0.094678 0.00310629 0.006523 -0.000878299 161 140 58 255 0.47224 0.339125 
0.009394 0.331575 0.174854 -0.000363111 0.000600458 0.0012594 161 140 58 255 0.47224 0.339125 
0.081005 0.346135 0.188559 -0.000363111 0.000600458 0.0012594 161 140 58 255 0.47224 0.339125 
0.077849 0.36308 0.17957 -0.000363111 0.000600458 0.0012594 161 140 58 255 0.47224 0.339125 
-0.043979 0.363562 0.107998 -9.57853e-05 0.00819714 0.000218246 161 140 58 255 0.47224 0.339125 
0.077849 0.36308 0.17957 -9.57853e-05 0.00819714 0.000218246 161 140 58 255 0.47224 0.339125 
0.047878 0.36499 0.094678 -9.57853e-05 0.00819714 0.000218246 161 140 58 255 0.47224 0.339125 
-0.028468 0.309881 0.038374 -0.00036672 -0.000554508 -0.000775202 161 140 58 255 0.47224 0.339125 
-0.007937 0.340442 0.006801 -0.00036672 -0.000554508 -0.000775202 161 140 58 255 0.47224 0.339125 
0.021434 0.346404 -0.011358 -0.00036672 -0.000554508 -0.000775202 161 140 58 255 0.47224 0.339125 
0.023987 0.363459 -0.001188 -0.00251396 0.00294267 -0.00156766 161 140 58 255 0.47224 0.339125 
-0.007937 0.340442 0.006801 -0.00251396 0.00294267 -0.00156766 161 140 58 255 0.47224 0.339125 
-0.043979 0.363562 0.107998 -0.00251396 0.00294267 -0.00156766 161 140 58 255 0.47224 0.339125 
-0.028468 0.309881 0.038374 -0.00237956 -0.00840587 -0.00783851 161 140 58 255 0.47224 0.339125 
0.090373 0.309261 0.002962 -0.00237956 -0.00840587 -0.00783851 161 140 58 255 0.47224 0.339125 
0.05031 0.243512 0.085632 -0.00237956 -0.00840587 -0.00783851 161 140 58 255 0.47224 0.339125 
0.090373 0.309261 0.002962 0.00184769 -0.00402885 -0.00230881 161 140 58 255 0.47224 0.339125 
0.109616 0.283212 0.063817 0.00184769 -0.00402885 -0.00230881 161 140 58 255 0.47224 0.339125 
0.05031 0.243512 0.085632 0.00184769 -0.00402885 -0.00230881 161 140 58 255 0.47224 0.339125 
0.109616 0.283212 0.063817 0.00332418 -0.0028595 -0.00303074 161 140 58 255 0.47224 0.339125 
0.092223 0.331069 -0.000413 0.00332418 -0.0028595 -0.00303074 161 140 58 255 0.47224 0.339125 
0.150105 0.346057 0.048932 0.00332418 -0.0028595 -0.00303074 161 140 58 255 0.47224 0.339125 
0.090373 0.309261 0.002962 0.00123921 -0.000177527 -0.000467842 161 140 58 255 0.47224 0.339125 
0.092223 0.331069 -0.000413 0.00123921 -0.000177527 -0.000467842 161 140 58 255 0.47224 0.339125 
0.109616 0.283212 0.063817 0.00123921 -0.000177527 -0.000467842 161 140 58 255 0.47224 0.339125 
-0.050662 0.340438 0.071883 -0.00232335 -0.00155563 8.98716e-05 161 140 58 255 0.47224 0.339125 
-0.011259 0.283204 0.099836 -0.00232335 -0.00155563 8.98716e-05 161 140 58 255 0.47224 0.339125 
-0.05325 0.346478 0.109527 -0.00232335 -0.00155563 8.98716e-05 161 140 58 255 0.47224 0.339125 
-0.028468 0.309881 0.038374 -0.00277201 -0.00194074 -6.62141e-05 161 140 58 255 0.47224 0.339125 
-0.011259 0.283204 0.099836 -0.00277201 -0.00194074 -6.62141e-05 161 140 58 255 0.47224 0.339125 
-0.050662 0.340438 0.071883 -0.00277201 -0.00194074 -6.62141e-05 161 140 58 255 0.47224 0.339125 
-0.043979 0.363562 0.107998 -0.000652345 0.00034504 -0.00010021 161 140 58 255 0.47224 0.339125 
-0.050662 0.340438 0.071883 -0.000652345 0.00034504 -0.00010021 161 140 58 255 0.47224 0.339125 
-0.05325 0.346478 0.109527 -0.000652345 0.00034504 -0.00010021 161 140 58 255 0.47224 0.339125 
-0.007937 0.340442 0.006801 -0.0015051 0.00197796 -0.000987945 161 140 58 255 0.47224 0.339125 
-0.050662 0.340438 0.071883 -0.0015051 0.00197796 -0.000987945 161 140 58 255 0.47224 0.339125 
-0.043979 0.363562 0.107998 -0.0015051 0.00197796 -0.000987945 161 140 58 255 0.47224 0.339125 
0.140632 0.362976 0.052989 -0.00122262 0.00697137 -0.003057 161 140 58 255 0.47224 0.339125 
0.092223 0.331069 -0.000413 -0.00122262 0.00697137 -0.003057 161 140 58 255 0.47224 0.339125 
0.047878 0.36499 0.094678 -0.00122262 0.00697137 -0.003057 161 140 58 255 0.47224 0.339125 
0.150105 0.346057 0.048932 0.000774063 0.000702272 -0.00112129 161 140 58 255 0.47224 0.339125 
0.092223 0.331069 -0.000413 0.000774063 0.000702272 -0.00112129 161 140 58 255 0.47224 0.339125 
0.140632 0.362976 0.052989 0.000774063 0.000702272 -0.00112129 161 140 58 255 0.47224 0.339125 
0.130051 0.309371 0.136123 0.00493345 -0.00323177 -0.000225086 161 140 58 255 0.47224 0.339125 
0.109616 0.283212 0.063817 0.00493345 -0.00323177 -0.000225086 161 140 58 255 0.47224 0.339125 
0.150105 0.346057 0.048932 0.00493345 -0.00323177 -0.000225086 161 140 58 255 0.47224 0.339125 
0.130051 0.309371 0.136123 0.0023322 -0.00882414 0.00782668 161 140 58 255 0.47224 0.339125 
0.011211 0.309371 0.171535 0.0023322 -0.00882414 0.00782668 161 140 58 255 0.47224 0.339125 
0.05031 0.243512 0.085632 0.0023322 -0.00882414 0.00782668 161 140 58 255 0.47224 0.339125 
0.011211 0.309371 0.171535 -0.0024742 -0.0047336 0.00250296 161 140 58 255 0.47224 0.339125 
-0.011259 0.283204 0.099836 -0.0024742 -0.0047336 0.00250296 161 140 58 255 0.47224 0.339125 
0.05031 0.243512 0.085632 -0.0024742 -0.0047336 0.00250296 161 140 58 255 0.47224 0.339125 
-0.05325 0.346478 0.109527 -0.0042831 -0.00322847 0.00252055 161 140 58 255 0.47224 0.339125 
-0.011259 0.283204 0.099836 -0.0042831 -0.00322847 0.00252055 161 140 58 255 0.47224 0.339125 
0.011211 0.309371 0.171535 -0.0042831 -0.00322847 0.00252055 161 140 58 255 0.47224 0.339125 
0.092223 0.331069 -0.000413 0.000342624 0.000691982 -0.00124646 161 140 58 255 0.47224 0.339125 
0.021434 0.346404 -0.011358 0.000342624 0.000691982 -0.00124646 161 140 58 255 0.47224 0.339125 
0.023987 0.363459 -0.001188 0.000342624 0.000691982 -0.00124646 161 140 58 255 0.47224 0.339125 
0.130051 0.309371 0.136123 0.000283062 -0.000658158 0.000726211 161 140 58 255 0.47224 0.339125 
0.110421 0.338892 0.170529 0.000283062 -0.000658158 0.000726211 161 140 58 255 0.47224 0.339125 
0.081005 0.346135 0.188559 0.000283062 -0.000658158 0.000726211 161 140 58 255 0.47224 0.339125 
0.110421 0.338892 0.170529 0.00208637 0.00099089 0.000739288 161 140 58 255 0.47224 0.339125 
0.150105 0.346057 0.048932 0.00208637 0.00099089 0.000739288 161 140 58 255 0.47224 0.339125 
0.140632 0.362976 0.052989 0.00208637 0.00099089 0.000739288 161 140 58 255 0.47224 0.339125 
0.150105 0.346057 0.048932 0.00383619 0.00102158 0.00131216 161 140 58 255 0.47224 0.339125 
0.110421 0.338892 0.170529 0.00383619 0.00102158 0.00131216 161 140 58 255 0.47224 0.339125 
0.130051 0.309371 0.136123 0.00383619 0.00102158 0.00131216 161 140 58 255 0.47224 0.339125 
0.110421 0.338892 0.170529 0.00124076 0.00964284 0.00229473 161 140 58 255 0.47224 0.339125 
0.140632 0.362976 0.052989 0.00124076 0.00964284 0.00229473 161 140 58 255 0.47224 0.339125 
0.047878 0.36499 0.094678 0.00124076 0.00964284 0.00229473 161 140 58 255 0.47224 0.339125 
0.009394 0.331575 0.174854 -0.00149998 -0.000326614 0.00136387 161 140 58 255 0.47224 0.339125 
-0.05325 0.346478 0.109527 -0.00149998 -0.000326614 0.00136387 161 140 58 255 0.47224 0.339125 
0.011211 0.309371 0.171535 -0.00149998 -0.000326614 0.00136387 161 140 58 255 0.47224 0.339125 
-0.043979 0.363562 0.107998 -0.00109326 0.000701429 0.00120838 161 140 58 255 0.47224 0.339125 
-0.05325 0.346478 0.109527 -0.00109326 0.000701429 0.00120838 161 140 58 255 0.47224 0.339125 
0.009394 0.331575 0.174854 -0.00109326 0.000701429 0.00120838 161 140 58 255 0.47224 0.339125 
-0.043979 0.363562 0.107998 -0.00225715 0.00432492 0.00387118 161 140 58 255 0.47224 0.339125 
0.009394 0.331575 0.174854 -0.00225715 0.00432492 0.00387118 161 140 58 255 0.47224 0.339125 
0.077849 0.36308 0.17957 -0.00225715 0.00432492 0.00387118 161 140 58 255 0.47224 0.339125 
0.105401 0.25003 -0.167997 -0.00124536 0.0066942 -0.00125037 161 140 58 255 0.47224 0.339125 
0.008093 0.228844 -0.184504 -0.00124536 0.0066942 -0.00125037 161 140 58 255 0.47224 0.339125 
0.05408 0.251706 -0.107909 -0.00124536 0.0066942 -0.00125037 161 140 58 255 0.47224 0.339125 
0.131911 0.222377 -0.113916 0.00175225 0.00436842 0.00137475 161 140 58 255 0.47224 0.339125 
0.105401 0.25003 -0.167997 0.00175225 0.00436842 0.00137475 161 140 58 255 0.47224 0.339125 
0.05408 0.251706 -0.107909 0.00175225 0.00436842 0.00137475 161 140 58 255 0.47224 0.339125 
-0.014856 0.235393 -0.041207 -0.000959412 0.00777567 0.000910114 161 140 58 255 0.47224 0.339125 
0.10458 0.250454 -0.043977 -0.000959412 0.00777567 0.000910114 161 140 58 255 0.47224 0.339125 
0.05408 0.251706 -0.107909 -0.000959412 0.00777567 0.000910114 161 140 58 255 0.47224 0.339125 
-0.037659 0.221933 -0.099799 -0.00185362 0.0055601 -0.000555893 161 140 58 255 0.47224 0.339125 
-0.014856 0.235393 -0.041207 -0.00185362 0.0055601 -0.000555893 161 140 58 255 0.47224 0.339125 
0.05408 0.251706 -0.107909 -0.00185362 0.0055601 -0.000555893 161 140 58 255 0.47224 0.339125 
0.10458 0.250454 -0.043977 0.00188258 0.00527924 -0.00138367 161 140 58 255 0.47224 0.339125 
0.131911 0.222377 -0.113916 0.00188258 0.00527924 -0.00138367 161 140 58 255 0.47224 0.339125 
0.05408 0.251706 -0.107909 0.00188258 0.00527924 -0.00138367 161 140 58 255 0.47224 0.339125 
0.044864 0.203335 -0.025155 -0.00584787 -0.00674867 0.00478367 161 140 58 255 0.47224 0.339125 
-0.037659 0.221933 -0.099799 -0.00584787 -0.00674867 0.00478367 161 140 58 255 0.47224 0.339125 
0.046139 0.14508 -0.105781 -0.00584787 -0.00674867 0.00478367 161 140 58 255 0.47224 0.339125 
-0.037659 0.221933 -0.099799 -0.00293419 -0.00322716 0.000357295 161 140 58 255 0.47224 0.339125 
0.003495 0.179926 -0.141248 -0.00293419 -0.00322716 0.000357295 161 140 58 255 0.47224 0.339125 
0.046139 0.14508 -0.105781 -0.00293419 -0.00322716 0.000357295 161 140 58 255 0.47224 0.339125 
-0.037659 0.221933 -0.099799 -0.00330374 -0.00220317 -0.0010474 161 140 58 255 0.47224 0.339125 
-0.025613 0.235088 -0.165466 -0.00330374 -0.00220317 -0.0010474 161 140 58 255 0.47224 0.339125 
0.003495 0.179926 -0.141248 -0.00330374 -0.00220317 -0.0010474 161 140 58 255 0.47224 0.339125 
0.044864 0.203335 -0.025155 0.00157944 -0.00211698 0.00277794 161 140 58 255 0.47224 0.339125 
0.083995 0.179919 -0.065248 0.00157944 -0.00211698 0.00277794 161 140 58 255 0.47224 0.339125 
0.109817 0.235458 -0.037605 0.00157944 -0.00211698 0.00277794 161 140 58 255 0.47224 0.339125 
-0.014856 0.235393 -0.041207 -5.44298e-05 0.000775553 0.00186994 161 140 58 255 0.47224 0.339125 
0.109817 0.235458 -0.037605 -5.44298e-05 0.000775553 0.00186994 161 140 58 255 0.47224 0.339125 
0.10458 0.250454 -0.043977 -5.44298e-05 0.000775553 0.00186994 161 140 58 255 0.47224 0.339125 
-0.025613 0.235088 -0.165466 -0.00184842 0.00592653 0.000848181 161 140 58 255 0.47224 0.339125 
-0.037659 0.221933 -0.099799 -0.00184842 0.00592653 0.000848181 161 140 58 255 0.47224 0.339125 
0.05408 0.251706 -0.107909 -0.00184842 0.00592653 0.000848181 161 140 58 255 0.47224 0.339125 
0.008093 0.228844 -0.184504 -0.00120139 -0.00137045 -0.00167754 161 140 58 255 0.47224 0.339125 
0.003495 0.179926 -0.141248 -0.00120139 -0.00137045 -0.00167754 161 140 58 255 0.47224 0.339125 
-0.025613 0.235088 -0.165466 -0.00120139 -0.00137045 -0.00167754 161 140 58 255 0.47224 0.339125 
0.049445 0.202887 -0.188559 -0.00132116 -0.00177008 -0.00214221 161 140 58 255 0.47224 0.339125 
0.003495 0.179926 -0.141248 -0.00132116 -0.00177008 -0.00214221 161 140 58 255 0.47224 0.339125 
0.008093 0.228844 -0.184504 -0.00132116 -0.00177008 -0.00214221 161 140 58 255 0.47224 0.339125 
0.049445 0.202887 -0.188559 0.00271208 -0.00606867 -0.00412966 161 140 58 255 0.47224 0.339125 
0.121017 0.205216 -0.144978 0.00271208 -0.00606867 -0.00412966 161 140 58 255 0.47224 0.339125 
0.046139 0.14508 -0.105781 0.00271208 -0.00606867 -0.00412966 161 140 58 255 0.47224 0.339125 
0.131911 0.222377 -0.113916 0.00341649 -0.00378455 6.20557e-05 161 140 58 255 0.47224 0.339125 
0.083995 0.179919 -0.065248 0.00341649 -0.00378455 6.20557e-05 161 140 58 255 0.47224 0.339125 
0.046139 0.14508 -0.105781 0.00341649 -0.00378455 6.20557e-05 161 140 58 255 0.47224 0.339125 
0.109817 0.235458 -0.037605 0.00387664 -0.00258125 0.00156486 161 140 58 255 0.47224 0.339125 
0.083995 0.179919 -0.065248 0.00387664 -0.00258125 0.00156486 161 140 58 255 0.47224 0.339125 
0.131911 0.222377 -0.113916 0.00387664 -0.00258125 0.00156486 161 140 58 255 0.47224 0.339125 
0.105401 0.25003 -0.167997 0.000342563 0.00107718 -0.00340191 161 140 58 255 0.47224 0.339125 
0.049445 0.202887 -0.188559 0.000342563 0.00107718 -0.00340191 161 140 58 255 0.47224 0.339125 
0.008093 0.228844 -0.184504 0.000342563 0.00107718 -0.00340191 161 140 58 255 0.47224 0.339125 
0.008093 0.228844 -0.184504 4.30125e-05 0.00345721 -0.00105773 161 140 58 255 0.47224 0.339125 
-0.025613 0.235088 -0.165466 4.30125e-05 0.00345721 -0.00105773 161 140 58 255 0.47224 0.339125 
0.05408 0.251706 -0.107909 4.30125e-05 0.00345721 -0.00105773 161 140 58 255 0.47224 0.339125 
0.10458 0.250454 -0.043977 0.00122771 0.000540424 0.000262817 161 140 58 255 0.47224 0.339125 
0.109817 0.235458 -0.037605 0.00122771 0.000540424 0.000262817 161 140 58 255 0.47224 0.339125 
0.131911 0.222377 -0.113916 0.00122771 0.000540424 0.000262817 161 140 58 255 0.47224 0.339125 
3 0 1 2
3 3 4 5
3 6 7 8
3 9 10 11
3 12 13 14
3 15 16 17
3 18 19 20
3 21 22 23
3 24 25 26
3 27 28 29
3 30 31 32
3 33 34 35
3 36 37 38
3 39 40 41
3 42 43 44
3 45 46 47
3 48 49 50
3 51 52 53
3 54 55 56
3 57 58 59
3 60 61 62
3 63 64 65
3 66 67 68
3 69 70 71
3 72 73 74
3 75 76 77
3 78 79 80
3 81 82 83
3 84 85 86
3 87 88 89
3 90 91 92
3 93 94 95
3 96 97 98
3 99 100 101
3 102 103 104
3 105 106 107
3 108 109 110
3 111 112 113
3 114 115 116
3 117 118 119
3 120 121 122
3 123 124 125
3 126 127 128
3 129 130 131
3 132 133 134
3 135 136 137
3 138 139 140
3 141 142 143
3 144 145 146
3 147 148 149
3 150 151 152
3 153 154 155
3 156 157 158
3 159 160 161
3 162 163 164
3 165 166 167
3 168 169 170
3 171 172 173
3 174 175 176
3 177 178 179
3 180 181 182
3 183 184 185
3 186 187 188
3 189 190 191
3 192 193 194
3 195 196 197
3 198 199 200
3 201 202 203
3 204 205 206
3 207 208 209
3 210 211 212
3 213 214 215
3 216 217 218
3 219 220 221
3 222 223 224
3 225 226 227
3 228 229 230
3 231 232 233
3 234 235 236
3 237 238 239
3 240 241 242
3 243 244 245
3 246 247 248
3 249 250 251
3 252 253 254
3 255 256 257
3 258 259 260
3 261 262 263
3 264 265 266
3 267 268 269
3 270 271 272
3 273 274 275
3 276 277 278
3 279 280 281
3 282 283 284
3 285 286 287
3 288 289 290
3 291 292 293
3 294 295 296
3 297 298 299
3 300 301 302
3 303 304 305
3 306 307 308
3 309 310 311
3 312 313 314
3 315 316 317
3 318 319 320
3 321 322 323
3 324 325 326
3 327 328 329
3 330 331 332
3 333 334 335
3 336 337 338
3 339 340 341
3 342 343 344
3 345 346 347
3 348 349 350
3 351 352 353
3 354 355 356
3 357 358 359
3 360 361 362
3 363 364 365
3 366 367 368
3 369 370 371
3 372 373 374
3 375 376 377
3 378 379 380
3 381 382 383
3 384 385 386
3 387 388 389
3 390 391 392
3 393 394 395
3 396 397 398
3 399 400 401
3 402 403 404
3 405 406 407
